<svg width="110" height="128" viewBox="0 0 110 128" fill="none" xmlns="http://www.w3.org/2000/svg">
<path d="M109.869 18.304C109.869 8.23467 101.677 0 91.5654 0C81.4534 0 73.2614 8.192 73.2614 18.304C73.2614 25.0453 76.9307 30.976 82.392 34.1333V39.9668C82.392 45.6484 79.182 50.8424 74.1002 53.3832L61.703 59.5818C57.483 61.6918 52.5162 61.6934 48.2949 59.586L35.8655 53.381C30.7791 50.8417 27.5653 45.6453 27.5653 39.9604V34.0907C33.0267 30.9333 36.696 25.0027 36.696 18.2613C36.696 8.192 28.504 0 18.4347 0C8.36535 0 0.130676 8.192 0.130676 18.304C0.130676 25.0453 3.80001 30.976 9.26134 34.1333V51.2783C9.26134 56.9574 12.4686 62.1495 17.5469 64.6916L37.5411 74.7004C42.6195 77.2425 45.8267 82.4346 45.8267 88.1137V93.952C40.3653 97.1093 36.696 103.04 36.696 109.781C36.696 119.851 44.888 128.085 55 128.085C65.112 128.085 73.304 119.893 73.304 109.781C73.304 103.04 69.6347 97.1093 64.1734 93.952V88.1137C64.1734 82.4346 67.3806 77.2425 72.4589 74.7004L92.4532 64.6916C97.5315 62.1495 100.739 56.9574 100.739 51.2783V34.0907C106.157 30.9333 109.869 25.0453 109.869 18.304ZM18.4347 9.13067C23.4693 9.13067 27.5653 13.2267 27.5653 18.2613C27.5653 23.296 23.4693 27.392 18.4347 27.392C13.4 27.392 9.30401 23.296 9.30401 18.2613C9.30401 13.2267 13.4 9.13067 18.4347 9.13067ZM55 118.869C49.9654 118.869 45.8694 114.773 45.8694 109.739C45.8694 104.704 49.9654 100.608 55 100.608C60.0347 100.608 64.1307 104.704 64.1307 109.739C64.1307 114.773 60.0347 118.869 55 118.869ZM91.5654 27.4347C86.5307 27.4347 82.4347 23.3387 82.4347 18.304C82.4347 13.2693 86.5307 9.17333 91.5654 9.17333C96.6 9.17333 100.696 13.2693 100.696 18.304C100.696 23.3387 96.6 27.4347 91.5654 27.4347Z" fill="#7540F0"/>
</svg>
