<svg width="483" height="87" viewBox="0 0 483 87" fill="none" xmlns="http://www.w3.org/2000/svg">
<path d="M28.3658 75.1784C22.9481 75.1784 18.148 74.0245 13.9647 71.7166C9.85015 69.3386 6.6272 66.0518 4.29547 61.8556C2.03245 57.5893 0.90094 52.6588 0.90094 47.0641V28.1813C0.90094 22.5865 2.03245 17.6909 4.29547 13.4947C6.6272 9.22856 9.85015 5.94157 13.9647 3.63367C18.148 1.25583 22.9481 0.066925 28.3658 0.066925H39.2694C44.6871 0.066925 49.453 1.25583 53.5676 3.63367C57.7509 5.94157 60.9738 9.22856 63.2368 13.4947C65.5686 17.6909 66.7342 22.5865 66.7342 28.1813V47.0641C66.7342 52.6588 65.5686 57.5893 63.2368 61.8556C60.9738 66.0518 57.7509 69.3386 53.5676 71.7166C49.453 74.0245 44.6871 75.1784 39.2694 75.1784H28.3658ZM39.2694 62.3801C43.247 62.3801 46.4358 60.9114 48.8358 57.9741C51.3045 55.0368 52.5389 51.1902 52.5389 46.4346V28.8107C52.5389 24.0552 51.3045 20.2086 48.8358 17.2712C46.4358 14.3339 43.247 12.8653 39.2694 12.8653H28.3658C24.3882 12.8653 21.1652 14.3339 18.6965 17.2712C16.2965 20.2086 15.0962 24.0552 15.0962 28.8107V46.4346C15.0962 51.1902 16.2965 55.0368 18.6965 57.9741C21.1652 60.9114 24.3882 62.3801 28.3658 62.3801H39.2694ZM76.9829 21.9919H89.9438V27.6568C91.3839 25.6984 93.2013 24.1249 95.3956 22.9361C97.6587 21.7473 99.853 21.1527 101.979 21.1527H108.459C112.574 21.1527 116.208 22.0268 119.363 23.7753C122.518 25.4538 124.952 27.8317 126.666 30.9088C128.381 33.9859 129.238 37.5178 129.238 41.5041V53.2534C129.238 57.5893 128.381 61.436 126.666 64.7929C124.952 68.0798 122.552 70.6327 119.466 72.4509C116.38 74.2691 112.814 75.1784 108.768 75.1784H102.082C100.162 75.1784 98.173 74.724 96.1157 73.8147C94.1271 72.9054 92.4126 71.6818 90.9725 70.143V95.3201H76.9829V21.9919ZM106.916 62.9046C109.454 62.9046 111.477 61.9257 112.985 59.9673C114.494 58.009 115.249 55.4216 115.249 52.2044V42.5532C115.249 39.8257 114.46 37.6227 112.883 35.9442C111.374 34.2657 109.351 33.4265 106.814 33.4265H100.539C98.5503 33.4265 96.6642 34.2657 94.8813 35.9442C93.0985 37.5526 91.7954 39.6507 90.9725 42.2385V52.624C91.3152 55.7011 92.3439 58.1839 94.0584 60.0722C95.8413 61.9605 98.0014 62.9046 100.539 62.9046H106.916ZM159.019 75.1784C154.699 75.1784 150.859 74.374 147.498 72.7656C144.206 71.0872 141.635 68.7793 139.783 65.842C137.932 62.8346 137.006 59.4079 137.006 55.5613V42.0287C137.006 37.9026 137.932 34.2657 139.783 31.1186C141.635 27.9715 144.206 25.5239 147.498 23.7753C150.859 22.0268 154.699 21.1527 159.019 21.1527H167.248C173.831 21.1527 179.112 23.041 183.089 26.8175C187.067 30.5941 189.055 35.6295 189.055 41.9238V53.0436H150.996V55.5613C150.996 57.8692 151.716 59.7227 153.156 61.1213C154.596 62.5198 156.55 63.2193 159.019 63.2193H167.042C169.442 63.2193 171.363 62.6948 172.803 61.6458C174.312 60.5267 175.066 59.0932 175.066 57.3447H188.85C188.85 60.8414 187.924 63.9537 186.072 66.6812C184.221 69.4087 181.615 71.5068 178.255 72.9754C174.963 74.4441 171.157 75.1784 166.837 75.1784H159.019ZM175.272 42.763V41.9238C175.272 39.1962 174.551 37.0281 173.111 35.4197C171.671 33.7412 169.751 32.902 167.351 32.902H159.019C156.55 32.902 154.562 33.7761 153.053 35.5246C151.544 37.2731 150.79 39.581 150.79 42.4483V42.763H175.272ZM198.532 21.9919H211.493V28.2862C213.002 26.118 214.956 24.4047 217.356 23.1459C219.756 21.817 222.156 21.1527 224.557 21.1527H230.728C236.214 21.1527 240.603 22.9012 243.895 26.3979C247.255 29.8946 248.935 34.5104 248.935 40.2453V74.3392H234.946V40.7698C234.946 38.6017 234.363 36.8535 233.197 35.5246C232.1 34.1957 230.66 33.5314 228.877 33.5314H222.705C220.305 33.5314 218.145 34.4407 216.224 36.2589C214.373 38.0075 213.139 40.3154 212.521 43.1826V74.3392H198.532V21.9919ZM270.598 74.3392C267.651 74.3392 265.251 73.4299 263.399 71.6117C261.548 69.7935 260.622 67.4155 260.622 64.4782V0.906161H294.98C300.465 0.906161 305.267 1.95521 309.381 4.05329C313.564 6.15138 316.787 9.12365 319.049 12.9702C321.379 16.8168 322.545 21.2576 322.545 26.293V46.8543C322.545 55.876 320.25 62.7297 315.653 67.4155C311.061 72.0313 304.306 74.3392 295.39 74.3392H270.598ZM294.98 61.5409C299.368 61.5409 302.695 60.2472 304.957 57.6594C307.219 55.0716 308.353 51.2602 308.353 46.2248V26.9224C308.353 22.9361 307.083 19.7541 304.543 17.3761C302.008 14.9285 298.681 13.7045 294.566 13.7045H274.817V61.5409H294.98ZM352.291 75.1784C347.967 75.1784 344.13 74.3392 340.767 72.6607C337.476 70.9122 334.904 68.4646 333.052 65.3174C331.272 62.1703 330.38 58.5335 330.38 54.4074V42.1336C330.38 38.0075 331.304 34.3706 333.157 31.2235C335.009 28.0063 337.58 25.5239 340.871 23.7753C344.231 22.0268 348.072 21.1527 352.391 21.1527H361.649C365.969 21.1527 369.778 22.0268 373.069 23.7753C376.428 25.5239 379.036 28.0063 380.884 31.2235C382.736 34.3706 383.665 38.0075 383.665 42.1336V54.4074C383.665 58.5335 382.736 62.1703 380.884 65.3174C379.036 68.4646 376.428 70.9122 373.069 72.6607C369.778 74.3392 365.937 75.1784 361.549 75.1784H352.291ZM361.34 62.9046C363.879 62.9046 365.9 62.0306 367.411 60.282C368.918 58.4638 369.673 56.1207 369.673 53.2534V43.0777C369.673 40.2105 368.918 37.9026 367.411 36.154C365.9 34.3358 363.911 33.4265 361.444 33.4265H352.596C350.129 33.4265 348.14 34.3358 346.633 36.154C345.123 37.9026 344.367 40.2105 344.367 43.0777V53.2534C344.367 56.1207 345.123 58.4638 346.633 60.282C348.14 62.0306 350.093 62.9046 352.496 62.9046H361.34ZM415.336 74.3392C409.3 74.3392 404.876 72.9406 402.064 70.143C399.251 67.3454 397.849 63.0095 397.849 57.1349V34.1608H388.796V21.9919H398.259V6.15138H411.836V21.9919H425.208V34.1608H411.836V56.5055C411.836 58.4638 412.181 59.8972 412.864 60.8065C413.62 61.7158 414.785 62.1703 416.364 62.1703H425.208V74.3392H415.336ZM450.149 75.1784C444.797 75.1784 440.477 73.8147 437.186 71.0872C433.895 68.3597 432.248 64.7581 432.248 60.282V56.4006C432.248 51.9946 433.964 48.4627 437.391 45.8052C440.823 43.0777 445.347 41.714 450.968 41.714H457.245C459.029 41.714 460.95 41.9586 463.007 42.4483C465.064 42.938 466.949 43.6022 468.664 44.4415V38.9864C468.664 37.2379 468.082 35.8393 466.913 34.7903C465.816 33.6711 464.341 33.1118 462.493 33.1118H453.645C451.724 33.1118 450.181 33.5662 449.016 34.4756C447.85 35.3849 447.268 36.6085 447.268 38.1472H433.69C433.69 33.0417 435.507 28.9504 439.139 25.8734C442.844 22.7263 447.678 21.1527 453.645 21.1527H462.493C468.524 21.1527 473.394 22.7963 477.098 26.0832C480.799 29.3004 482.652 33.6015 482.652 38.9864V74.3392H469.693V68.0449C468.046 70.2131 466.024 71.9612 463.622 73.2902C461.223 74.549 458.856 75.1784 456.526 75.1784H450.149ZM457.554 64.2684C460.09 64.2684 462.352 63.6041 464.341 62.2752C466.33 60.9463 467.772 59.1629 468.664 56.9251V55.1417C467.567 54.3025 466.024 53.6382 464.036 53.1485C462.115 52.6588 460.058 52.4142 457.864 52.4142H451.382C449.735 52.4142 448.397 52.8338 447.368 53.673C446.34 54.5123 445.825 55.6314 445.825 57.03V59.7575C445.825 61.0864 446.376 62.1703 447.473 63.0095C448.638 63.8488 450.149 64.2684 451.997 64.2684H457.554Z" fill="white"/>
</svg>
