<svg width="1060" height="59" viewBox="0 0 1060 59" fill="none" xmlns="http://www.w3.org/2000/svg">
<rect width="1060" height="59" fill="#301070"/>
<path d="M41.1477 35V23.3636H45.5114C46.4053 23.3636 47.1553 23.5303 47.7614 23.8636C48.3712 24.197 48.8314 24.6553 49.142 25.2386C49.4564 25.8182 49.6136 26.4773 49.6136 27.2159C49.6136 27.9621 49.4564 28.625 49.142 29.2045C48.8277 29.7841 48.3636 30.2405 47.75 30.5739C47.1364 30.9034 46.3807 31.0682 45.483 31.0682H42.5909V29.3352H45.1989C45.7216 29.3352 46.1496 29.2443 46.483 29.0625C46.8163 28.8807 47.0625 28.6307 47.2216 28.3125C47.3845 27.9943 47.4659 27.6288 47.4659 27.2159C47.4659 26.803 47.3845 26.4394 47.2216 26.125C47.0625 25.8106 46.8144 25.5663 46.4773 25.392C46.1439 25.214 45.714 25.125 45.1875 25.125H43.2557V35H41.1477ZM51.642 35H49.392L53.4886 23.3636H56.0909L60.1932 35H57.9432L54.8352 25.75H54.7443L51.642 35ZM51.7159 30.4375H57.8523V32.1307H51.7159V30.4375ZM61.7259 35V23.3636H63.8338V28.2898H69.2259V23.3636H71.3395V35H69.2259V30.0568H63.8338V35H61.7259ZM81.1151 23.3636V25.1307H75.7401V35H73.6321V23.3636H81.1151Z" fill="white"/>
<path d="M169.148 35V23.3636H171.256V28.2898H176.648V23.3636H178.761V35H176.648V30.0568H171.256V35H169.148ZM182.548 35H180.298L184.395 23.3636H186.997L191.099 35H188.849L185.741 25.75H185.651L182.548 35ZM182.622 30.4375H188.759V32.1307H182.622V30.4375ZM196.695 35.1591C195.876 35.1591 195.149 35.0189 194.513 34.7386C193.88 34.4583 193.38 34.0682 193.013 33.5682C192.645 33.0682 192.45 32.4905 192.428 31.8352H194.564C194.583 32.1496 194.687 32.4242 194.876 32.6591C195.066 32.8902 195.318 33.0701 195.632 33.1989C195.946 33.3277 196.299 33.392 196.689 33.392C197.106 33.392 197.475 33.3201 197.797 33.1761C198.119 33.0284 198.371 32.8239 198.553 32.5625C198.734 32.3011 198.823 32 198.82 31.6591C198.823 31.3068 198.732 30.9962 198.547 30.7273C198.361 30.4583 198.092 30.2481 197.74 30.0966C197.392 29.9451 196.971 29.8693 196.479 29.8693H195.45V28.2443H196.479C196.884 28.2443 197.238 28.1742 197.541 28.0341C197.848 27.8939 198.089 27.697 198.263 27.4432C198.437 27.1856 198.522 26.8883 198.518 26.5511C198.522 26.2216 198.448 25.9356 198.297 25.6932C198.149 25.447 197.939 25.2557 197.666 25.1193C197.397 24.983 197.081 24.9148 196.717 24.9148C196.361 24.9148 196.032 24.9792 195.729 25.108C195.426 25.2367 195.181 25.4205 194.996 25.6591C194.81 25.8939 194.712 26.1742 194.7 26.5H192.672C192.687 25.8485 192.875 25.2765 193.234 24.7841C193.598 24.2879 194.083 23.9015 194.689 23.625C195.295 23.3447 195.975 23.2045 196.729 23.2045C197.505 23.2045 198.179 23.3504 198.751 23.642C199.327 23.9299 199.772 24.3182 200.087 24.8068C200.401 25.2955 200.558 25.8352 200.558 26.4261C200.562 27.0814 200.369 27.6307 199.979 28.0739C199.592 28.517 199.085 28.8068 198.456 28.9432V29.0341C199.274 29.1477 199.901 29.4508 200.337 29.9432C200.776 30.4318 200.994 31.0398 200.99 31.767C200.99 32.4186 200.804 33.0019 200.433 33.517C200.066 34.0284 199.558 34.4299 198.911 34.7216C198.267 35.0133 197.528 35.1591 196.695 35.1591ZM203.054 35V23.3636H207.509C208.349 23.3636 209.048 23.4962 209.605 23.7614C210.166 24.0227 210.584 24.3807 210.861 24.8352C211.141 25.2898 211.281 25.8049 211.281 26.3807C211.281 26.8542 211.19 27.2595 211.009 27.5966C210.827 27.9299 210.582 28.2008 210.276 28.4091C209.969 28.6174 209.626 28.767 209.247 28.858V28.9716C209.66 28.9943 210.056 29.1212 210.435 29.3523C210.817 29.5795 211.13 29.9015 211.372 30.3182C211.615 30.7348 211.736 31.2386 211.736 31.8295C211.736 32.4318 211.59 32.9735 211.298 33.4545C211.007 33.9318 210.567 34.3087 209.98 34.5852C209.393 34.8617 208.654 35 207.764 35H203.054ZM205.162 33.2386H207.429C208.194 33.2386 208.745 33.0928 209.082 32.8011C209.423 32.5057 209.594 32.1269 209.594 31.6648C209.594 31.3201 209.509 31.0095 209.338 30.733C209.168 30.4527 208.925 30.233 208.611 30.0739C208.296 29.911 207.921 29.8295 207.486 29.8295H205.162V33.2386ZM205.162 28.3125H207.247C207.611 28.3125 207.938 28.2462 208.23 28.1136C208.522 27.9773 208.751 27.786 208.918 27.5398C209.088 27.2898 209.173 26.9943 209.173 26.6534C209.173 26.2027 209.014 25.8314 208.696 25.5398C208.382 25.2481 207.914 25.1023 207.293 25.1023H205.162V28.3125ZM215.064 35H212.814L216.911 23.3636H219.513L223.615 35H221.365L218.257 25.75H218.166L215.064 35ZM215.138 30.4375H221.274V32.1307H215.138V30.4375ZM225.148 35V23.3636H227.256V28.2898H232.648V23.3636H234.761V35H232.648V30.0568H227.256V35H225.148ZM237.054 23.3636H239.145V31.2955H239.253L244.724 23.3636H246.616V35H244.509V27.0739H244.412L238.923 35H237.054V23.3636ZM248.913 35V23.3636H256.482V25.1307H251.021V28.2898H256.089V30.0568H251.021V33.233H256.527V35H248.913ZM269.572 35L265.743 29.9148H264.709V35H262.601V23.3636H264.709V28.1477H265.237L269.374 23.3636H271.97L267.374 28.6705L272.169 35H269.572ZM283.374 29.1818C283.374 30.4356 283.139 31.5095 282.669 32.4034C282.203 33.2936 281.567 33.9754 280.76 34.4489C279.957 34.9223 279.046 35.1591 278.027 35.1591C277.008 35.1591 276.095 34.9223 275.288 34.4489C274.485 33.9716 273.849 33.2879 273.379 32.3977C272.913 31.5038 272.68 30.4318 272.68 29.1818C272.68 27.928 272.913 26.8561 273.379 25.9659C273.849 25.072 274.485 24.3883 275.288 23.9148C276.095 23.4413 277.008 23.2045 278.027 23.2045C279.046 23.2045 279.957 23.4413 280.76 23.9148C281.567 24.3883 282.203 25.072 282.669 25.9659C283.139 26.8561 283.374 27.928 283.374 29.1818ZM281.254 29.1818C281.254 28.2992 281.116 27.5549 280.839 26.9489C280.567 26.339 280.188 25.8788 279.703 25.5682C279.218 25.2538 278.66 25.0966 278.027 25.0966C277.394 25.0966 276.836 25.2538 276.351 25.5682C275.866 25.8788 275.485 26.339 275.209 26.9489C274.936 27.5549 274.8 28.2992 274.8 29.1818C274.8 30.0644 274.936 30.8106 275.209 31.4205C275.485 32.0265 275.866 32.4867 276.351 32.8011C276.836 33.1117 277.394 33.267 278.027 33.267C278.66 33.267 279.218 33.1117 279.703 32.8011C280.188 32.4867 280.567 32.0265 280.839 31.4205C281.116 30.8106 281.254 30.0644 281.254 29.1818ZM285.366 23.3636H287.946L291.401 31.7955H291.537L294.991 23.3636H297.571V35H295.548V27.0057H295.44L292.224 34.9659H290.713L287.497 26.9886H287.389V35H285.366V23.3636ZM301.361 35H299.111L303.207 23.3636H305.81L309.912 35H307.662L304.554 25.75H304.463L301.361 35ZM301.435 30.4375H307.571V32.1307H301.435V30.4375ZM311.445 35V23.3636H313.553V28.2898H318.945V23.3636H321.058V35H318.945V30.0568H313.553V35H311.445ZM322.595 37.8068V33.2784H323.374C323.635 33.0701 323.879 32.7765 324.107 32.3977C324.334 32.0189 324.527 31.5 324.686 30.8409C324.845 30.1818 324.955 29.3295 325.016 28.2841L325.322 23.3636H332.76V33.2784H334.055V37.7955H332.033V35H324.618V37.8068H322.595ZM325.828 33.2784H330.737V25.1307H327.22L327.038 28.2841C326.989 29.0758 326.91 29.7841 326.8 30.4091C326.69 31.0341 326.552 31.5852 326.385 32.0625C326.218 32.536 326.033 32.9413 325.828 33.2784ZM337.199 27.858H340.153C341.044 27.858 341.807 28.0038 342.443 28.2955C343.083 28.5833 343.574 28.9905 343.915 29.517C344.256 30.0436 344.426 30.6629 344.426 31.375C344.426 32.0909 344.256 32.7216 343.915 33.267C343.574 33.8087 343.083 34.233 342.443 34.5398C341.807 34.8466 341.044 35 340.153 35H335.795V23.3636H337.909V33.2727H340.153C340.623 33.2727 341.021 33.1837 341.347 33.0057C341.672 32.8277 341.919 32.5928 342.085 32.3011C342.256 32.0095 342.341 31.6932 342.341 31.3523C342.341 30.8598 342.152 30.4413 341.773 30.0966C341.398 29.7481 340.858 29.5739 340.153 29.5739H337.199V27.858ZM347.545 23.3636V35H345.432V23.3636H347.545Z" fill="white"/>
<g clip-path="url(#clip0_6_48)">
<path d="M595.148 35V23.3636H599.511C600.405 23.3636 601.155 23.5303 601.761 23.8636C602.371 24.197 602.831 24.6553 603.142 25.2386C603.456 25.8182 603.614 26.4773 603.614 27.2159C603.614 27.9621 603.456 28.625 603.142 29.2045C602.828 29.7841 602.364 30.2405 601.75 30.5739C601.136 30.9034 600.381 31.0682 599.483 31.0682H596.591V29.3352H599.199C599.722 29.3352 600.15 29.2443 600.483 29.0625C600.816 28.8807 601.063 28.6307 601.222 28.3125C601.384 27.9943 601.466 27.6288 601.466 27.2159C601.466 26.803 601.384 26.4394 601.222 26.125C601.063 25.8106 600.814 25.5663 600.477 25.392C600.144 25.214 599.714 25.125 599.188 25.125H597.256V35H595.148ZM605.445 35V23.3636H613.013V25.1307H607.553V28.2898H612.621V30.0568H607.553V33.233H613.058V35H605.445ZM615.163 23.3636H617.254V31.2955H617.362L622.834 23.3636H624.726V35H622.618V27.0739H622.521L617.033 35H615.163V23.3636ZM621.072 20.3636H622.612C622.612 21.0265 622.372 21.5644 621.891 21.9773C621.413 22.3864 620.766 22.5909 619.947 22.5909C619.137 22.5909 618.491 22.3864 618.01 21.9773C617.533 21.5644 617.296 21.0265 617.3 20.3636H618.828C618.828 20.6364 618.911 20.8807 619.078 21.0966C619.249 21.3087 619.538 21.4148 619.947 21.4148C620.349 21.4148 620.635 21.3087 620.805 21.0966C620.98 20.8845 621.069 20.6402 621.072 20.3636ZM626.511 25.1307V23.3636H635.795V25.1307H632.199V35H630.108V25.1307H626.511ZM637.585 23.3636H639.676V31.2955H639.784L645.256 23.3636H647.148V35H645.04V27.0739H644.943L639.455 35H637.585V23.3636ZM649.445 35V23.3636H651.553V28.2898H656.945V23.3636H659.058V35H656.945V30.0568H651.553V35H649.445ZM668.834 23.3636V25.1307H663.459V35H661.351V23.3636H668.834Z" fill="white"/>
<path d="M753.642 23.3636V35H751.551V25.1136H746.46V35H744.369V23.3636H753.642ZM766.561 29.1818C766.561 30.4356 766.326 31.5095 765.857 32.4034C765.391 33.2936 764.754 33.9754 763.947 34.4489C763.144 34.9223 762.233 35.1591 761.214 35.1591C760.196 35.1591 759.283 34.9223 758.476 34.4489C757.673 33.9716 757.036 33.2879 756.567 32.3977C756.101 31.5038 755.868 30.4318 755.868 29.1818C755.868 27.928 756.101 26.8561 756.567 25.9659C757.036 25.072 757.673 24.3883 758.476 23.9148C759.283 23.4413 760.196 23.2045 761.214 23.2045C762.233 23.2045 763.144 23.4413 763.947 23.9148C764.754 24.3883 765.391 25.072 765.857 25.9659C766.326 26.8561 766.561 27.928 766.561 29.1818ZM764.442 29.1818C764.442 28.2992 764.304 27.5549 764.027 26.9489C763.754 26.339 763.375 25.8788 762.891 25.5682C762.406 25.2538 761.847 25.0966 761.214 25.0966C760.582 25.0966 760.023 25.2538 759.538 25.5682C759.054 25.8788 758.673 26.339 758.396 26.9489C758.124 27.5549 757.987 28.2992 757.987 29.1818C757.987 30.0644 758.124 30.8106 758.396 31.4205C758.673 32.0265 759.054 32.4867 759.538 32.8011C760.023 33.1117 760.582 33.267 761.214 33.267C761.847 33.267 762.406 33.1117 762.891 32.8011C763.375 32.4867 763.754 32.0265 764.027 31.4205C764.304 30.8106 764.442 30.0644 764.442 29.1818ZM768.554 35V23.3636H776.037V25.1307H770.662V27.858H772.906C773.796 27.858 774.56 28.0038 775.196 28.2955C775.836 28.5833 776.327 28.9905 776.668 29.517C777.009 30.0436 777.179 30.6629 777.179 31.375C777.179 32.0909 777.009 32.7216 776.668 33.267C776.327 33.8087 775.836 34.233 775.196 34.5398C774.56 34.8466 773.796 35 772.906 35H768.554ZM770.662 33.2727H772.906C773.376 33.2727 773.774 33.1837 774.099 33.0057C774.425 32.8277 774.671 32.5928 774.838 32.3011C775.009 32.0095 775.094 31.6932 775.094 31.3523C775.094 30.8598 774.904 30.4413 774.526 30.0966C774.151 29.7481 773.611 29.5739 772.906 29.5739H770.662V33.2727ZM779.023 35V23.3636H786.591V25.1307H781.131V28.2898H786.199V30.0568H781.131V33.233H786.636V35H779.023ZM787.986 37.8068V33.2784H788.764C789.026 33.0701 789.27 32.7765 789.497 32.3977C789.724 32.0189 789.918 31.5 790.077 30.8409C790.236 30.1818 790.346 29.3295 790.406 28.2841L790.713 23.3636H798.151V33.2784H799.446V37.7955H797.423V35H790.009V37.8068H787.986ZM791.219 33.2784H796.128V25.1307H792.611L792.429 28.2841C792.38 29.0758 792.3 29.7841 792.19 30.4091C792.08 31.0341 791.942 31.5852 791.776 32.0625C791.609 32.536 791.423 32.9413 791.219 33.2784ZM802.589 27.858H805.544C806.434 27.858 807.197 28.0038 807.834 28.2955C808.474 28.5833 808.964 28.9905 809.305 29.517C809.646 30.0436 809.817 30.6629 809.817 31.375C809.817 32.0909 809.646 32.7216 809.305 33.267C808.964 33.8087 808.474 34.233 807.834 34.5398C807.197 34.8466 806.434 35 805.544 35H801.186V23.3636H803.3V33.2727H805.544C806.014 33.2727 806.411 33.1837 806.737 33.0057C807.063 32.8277 807.309 32.5928 807.476 32.3011C807.646 32.0095 807.732 31.6932 807.732 31.3523C807.732 30.8598 807.542 30.4413 807.163 30.0966C806.788 29.7481 806.249 29.5739 805.544 29.5739H802.589V27.858ZM812.936 23.3636V35H810.822V23.3636H812.936Z" fill="white"/>
<path d="M902.642 23.3636V35H900.551V25.1136H895.46V35H893.369V23.3636H902.642ZM905.163 35V23.3636H909.527C910.421 23.3636 911.171 23.5303 911.777 23.8636C912.387 24.197 912.847 24.6553 913.158 25.2386C913.472 25.8182 913.629 26.4773 913.629 27.2159C913.629 27.9621 913.472 28.625 913.158 29.2045C912.843 29.7841 912.379 30.2405 911.766 30.5739C911.152 30.9034 910.396 31.0682 909.499 31.0682H906.607V29.3352H909.214C909.737 29.3352 910.165 29.2443 910.499 29.0625C910.832 28.8807 911.078 28.6307 911.237 28.3125C911.4 27.9943 911.482 27.6288 911.482 27.2159C911.482 26.803 911.4 26.4394 911.237 26.125C911.078 25.8106 910.83 25.5663 910.493 25.392C910.16 25.214 909.73 25.125 909.203 25.125H907.271V35H905.163ZM925.858 29.1818C925.858 30.4356 925.623 31.5095 925.153 32.4034C924.688 33.2936 924.051 33.9754 923.244 34.4489C922.441 34.9223 921.53 35.1591 920.511 35.1591C919.492 35.1591 918.58 34.9223 917.773 34.4489C916.97 33.9716 916.333 33.2879 915.864 32.3977C915.398 31.5038 915.165 30.4318 915.165 29.1818C915.165 27.928 915.398 26.8561 915.864 25.9659C916.333 25.072 916.97 24.3883 917.773 23.9148C918.58 23.4413 919.492 23.2045 920.511 23.2045C921.53 23.2045 922.441 23.4413 923.244 23.9148C924.051 24.3883 924.688 25.072 925.153 25.9659C925.623 26.8561 925.858 27.928 925.858 29.1818ZM923.739 29.1818C923.739 28.2992 923.6 27.5549 923.324 26.9489C923.051 26.339 922.672 25.8788 922.188 25.5682C921.703 25.2538 921.144 25.0966 920.511 25.0966C919.879 25.0966 919.32 25.2538 918.835 25.5682C918.35 25.8788 917.97 26.339 917.693 26.9489C917.42 27.5549 917.284 28.2992 917.284 29.1818C917.284 30.0644 917.42 30.8106 917.693 31.4205C917.97 32.0265 918.35 32.4867 918.835 32.8011C919.32 33.1117 919.879 33.267 920.511 33.267C921.144 33.267 921.703 33.1117 922.188 32.8011C922.672 32.4867 923.051 32.0265 923.324 31.4205C923.6 30.8106 923.739 30.0644 923.739 29.1818ZM927.851 23.3636H929.942V31.2955H930.05L935.521 23.3636H937.413V35H935.305V27.0739H935.209L929.72 35H927.851V23.3636ZM947.193 23.3636V25.1307H941.818V35H939.71V23.3636H947.193ZM948.976 35V23.3636H953.339C954.233 23.3636 954.983 23.5303 955.589 23.8636C956.199 24.197 956.66 24.6553 956.97 25.2386C957.285 25.8182 957.442 26.4773 957.442 27.2159C957.442 27.9621 957.285 28.625 956.97 29.2045C956.656 29.7841 956.192 30.2405 955.578 30.5739C954.964 30.9034 954.209 31.0682 953.311 31.0682H950.419V29.3352H953.027C953.55 29.3352 953.978 29.2443 954.311 29.0625C954.644 28.8807 954.891 28.6307 955.05 28.3125C955.213 27.9943 955.294 27.6288 955.294 27.2159C955.294 26.803 955.213 26.4394 955.05 26.125C954.891 25.8106 954.643 25.5663 954.305 25.392C953.972 25.214 953.542 25.125 953.016 25.125H951.084V35H948.976ZM960.699 27.858H963.653C964.544 27.858 965.307 28.0038 965.943 28.2955C966.583 28.5833 967.074 28.9905 967.415 29.517C967.756 30.0436 967.926 30.6629 967.926 31.375C967.926 32.0909 967.756 32.7216 967.415 33.267C967.074 33.8087 966.583 34.233 965.943 34.5398C965.307 34.8466 964.544 35 963.653 35H959.295V23.3636H961.409V33.2727H963.653C964.123 33.2727 964.521 33.1837 964.847 33.0057C965.172 32.8277 965.419 32.5928 965.585 32.3011C965.756 32.0095 965.841 31.6932 965.841 31.3523C965.841 30.8598 965.652 30.4413 965.273 30.0966C964.898 29.7481 964.358 29.5739 963.653 29.5739H960.699V27.858ZM971.045 23.3636V35H968.932V23.3636H971.045ZM973.642 23.3636H975.716V33.25H979.307V23.3636H981.369V33.25H984.932V23.3636H986.994V35H973.642V23.3636ZM989.601 23.3636H991.692V31.2955H991.8L997.271 23.3636H999.163V35H997.055V27.0739H996.959L991.47 35H989.601V23.3636Z" fill="white"/>
</g>
<defs>
<clipPath id="clip0_6_48">
<rect width="426" height="19" fill="white" transform="translate(594 20)"/>
</clipPath>
</defs>
</svg>
